# Blender v2.79 (sub 0) OBJ File: ''
# www.blender.org
mtllib house.mtl
v 1.000000 -1.000000 -1.000000
v 1.000000 -1.000000 1.000000
v -1.000000 -1.000000 1.000000
v -1.000000 -1.000000 -1.000000
v 1.000000 1.000000 -0.999999
v 0.999999 1.000000 1.000001
v -1.000000 1.000000 1.000000
v -1.000000 1.000000 -1.000000
v 1.000000 0.364238 -1.000000
v 1.000000 0.364238 1.000000
v -1.000000 0.364238 1.000000
v -1.000000 0.364238 -1.000000
v 2.774778 -1.000000 -1.000000
v 2.774778 -1.000000 1.000000
v 2.774779 0.364239 -0.999999
v 2.774778 0.364239 1.000001
v 1.000000 -1.000000 0.000000
v -1.000000 -1.000000 -0.000000
v 1.000000 1.641603 0.000001
v -1.000000 1.641603 -0.000000
v -1.000000 0.364238 -0.000000
v 1.000000 0.992613 0.000000
v 2.774778 -1.000000 0.000000
v 2.774778 0.992613 0.000001
v 1.177427 0.364238 1.000000
v 1.177428 0.364238 -1.000000
v 1.177427 -1.000000 1.000000
v 1.177427 -1.000000 -1.000000
v 1.177427 -1.000000 0.000000
v 1.177427 0.992613 0.000000
v 2.623299 0.364239 1.000001
v 2.623299 -1.000000 1.000000
v 2.623299 -1.000000 -1.000000
v 2.623299 -1.000000 0.000000
v 2.623299 0.992613 0.000001
v 2.623299 0.364239 -0.999999
v 1.000000 0.041450 -1.000000
v 1.000000 0.041450 1.000000
v -1.000000 0.041450 1.000000
v -1.000000 0.041450 -1.000000
v 2.774779 0.041450 -0.999999
v 2.774778 0.041450 1.000001
v 2.774778 0.521146 0.000001
v -1.000000 0.041450 -0.000000
v 1.177428 0.041450 -1.000000
v 1.177427 0.041450 1.000000
v 2.623299 0.041450 -0.999999
v 2.623299 0.041450 1.000001
v 1.177427 -1.000000 0.884903
v 2.623299 -1.000000 0.884904
v 1.177427 0.041450 0.884904
v 2.623299 0.041450 0.884904
v 0.379534 -1.000000 -1.000000
v -0.287133 -1.000000 -1.000000
v 0.379534 -1.000000 1.000000
v -0.287133 -1.000000 1.000000
v 0.379534 1.000000 -1.000000
v -0.287133 1.000000 -1.000000
v 0.379533 1.000000 1.000000
v -0.287133 1.000000 1.000000
v 0.379534 0.364238 -1.000000
v -0.287133 0.364238 -1.000000
v 0.379533 0.364238 1.000000
v -0.287133 0.364238 1.000000
v -0.287133 1.641603 0.000000
v 0.379534 1.641603 0.000000
v 0.379534 -1.000000 -0.000000
v -0.287133 -1.000000 -0.000000
v 0.379534 0.041450 1.000000
v -0.287133 0.041450 1.000000
v 0.379534 0.041450 -1.000000
v -0.287133 0.041450 -1.000000
v 2.774778 0.268228 0.000001
v -1.000000 -0.131710 -0.000000
v 1.177428 -0.131710 -1.000000
v 2.623299 -0.131710 -0.999999
v 1.000000 -0.131710 -1.000000
v 1.000000 -0.131710 1.000000
v -1.000000 -0.131710 1.000000
v -1.000000 -0.131710 -1.000000
v 2.774779 -0.131710 -0.999999
v 2.774778 -0.131710 1.000001
v 1.177427 -0.131710 1.000000
v 2.623299 -0.131710 1.000001
v 1.177427 -0.131710 0.884904
v 2.623299 -0.131710 0.884904
v 0.379534 -0.131710 1.000000
v -0.287133 -0.131710 1.000000
v 0.379534 -0.131710 -1.000000
v -0.287133 -0.131710 -1.000000
v 0.379534 -1.000000 0.982792
v -0.287133 -1.000000 0.982792
v 0.379534 -0.131710 0.982792
v -0.287133 -0.131710 0.982792
v 0.452430 1.641603 0.000000
v 0.452430 -1.000000 -1.000000
v 0.452430 -1.000000 1.000000
v 0.452430 1.000000 -1.000000
v 0.452430 1.000000 1.000000
v 0.452430 0.364238 -1.000000
v 0.452430 0.364238 1.000000
v 0.452430 -1.000000 -0.000000
v 0.452430 0.041450 1.000000
v 0.452430 0.041450 -1.000000
v 0.452430 -0.131710 -1.000000
v 0.452430 -0.131710 1.000000
v -0.352239 -1.000000 -1.000000
v -0.352239 -1.000000 1.000000
v -0.352239 1.000000 -1.000000
v -0.352240 1.000000 1.000000
v -0.352239 0.364238 -1.000000
v -0.352240 0.364238 1.000000
v -0.352239 -1.000000 -0.000000
v -0.352240 0.041450 1.000000
v -0.352239 0.041450 -1.000000
v -0.352239 1.641603 0.000000
v -0.352240 -0.131710 1.000000
v -0.352239 -0.131710 -1.000000
v 2.774778 -0.296824 0.000001
v -1.000000 -0.518572 -0.000000
v 1.177427 -0.518572 -1.000000
v 2.623299 -0.518572 -1.000000
v 0.379534 -0.518572 1.000000
v -0.287133 -0.518572 1.000000
v 1.000000 -0.518572 -1.000000
v 1.000000 -0.518572 1.000000
v -1.000000 -0.518572 1.000000
v -1.000000 -0.518572 -1.000000
v 2.774779 -0.518572 -0.999999
v 2.774778 -0.518572 1.000001
v 1.177427 -0.518572 1.000000
v 2.623299 -0.518572 1.000001
v 1.177427 -0.518572 0.884903
v 2.623299 -0.518572 0.884904
v 0.379534 -0.518572 -1.000000
v -0.287133 -0.518572 -1.000000
v 0.379534 -0.518572 0.982792
v -0.287133 -0.518572 0.982792
v 0.452430 -0.518572 1.000000
v 0.452430 -0.518572 -1.000000
v -0.352239 -0.518572 1.000000
v -0.352239 -0.518572 -1.000000
v -0.917156 -1.000000 -1.000000
v -0.917156 -1.000000 1.000000
v -0.917156 1.000000 -1.000000
v -0.917157 1.000000 1.000000
v -0.917156 0.364238 -1.000000
v -0.917157 0.364238 1.000000
v -0.917156 -1.000000 -0.000000
v -0.917157 0.041450 1.000000
v -0.917156 0.041450 -1.000000
v -0.917157 -0.131710 1.000000
v -0.917156 -0.131710 -1.000000
v -0.917156 1.641603 -0.000000
v -0.917157 -0.518572 1.000000
v -0.917156 -0.518572 -1.000000
v 0.928504 1.641603 0.000001
v 0.928504 -1.000000 -1.000000
v 0.928504 -1.000000 1.000000
v 0.928505 1.000000 -0.999999
v 0.928503 1.000000 1.000001
v 0.928504 0.364238 -1.000000
v 0.928504 0.364238 1.000000
v 0.928504 -1.000000 0.000000
v 0.928504 0.041450 1.000000
v 0.928504 0.041450 -1.000000
v 0.928504 -0.131710 -1.000000
v 0.928504 -0.131710 1.000000
v 0.928504 -0.518572 -1.000000
v 0.928504 -0.518572 1.000000
v 0.928504 -0.131710 0.945607
v 0.452430 -0.131710 0.945607
v 0.452430 -0.518572 0.945607
v -0.352240 -0.131710 0.945607
v -0.352239 -0.518572 0.945607
v 0.928504 -0.518572 0.945607
v -0.917157 -0.131710 0.945607
v -0.917157 -0.518572 0.945607
vn 0.0000 -1.0000 0.0000
vn -0.0000 0.8417 0.5400
vn 1.0000 0.0000 0.0000
vn 0.0000 0.0000 1.0000
vn -1.0000 -0.0000 -0.0000
vn 0.0000 0.0000 -1.0000
vn 0.0000 0.8467 0.5321
vn 0.0000 0.8467 -0.5321
vn 0.0000 0.8417 -0.5400
vn 0.0000 1.0000 0.0000
usemtl Material
s off
f 144//1 18//1 149//1
f 154//2 7//2 146//2
f 22//3 6//3 10//3
f 146//4 11//4 148//4
f 21//5 8//5 12//5
f 143//6 128//6 156//6
f 145//6 12//6 8//6
f 21//5 40//5 44//5
f 148//4 39//4 150//4
f 35//7 16//7 24//7
f 43//3 16//3 42//3
f 32//4 130//4 132//4
f 33//1 23//1 34//1
f 36//6 41//6 47//6
f 34//1 14//1 32//1
f 15//3 43//3 41//3
f 35//8 15//8 36//8
f 11//5 44//5 39//5
f 7//5 21//5 11//5
f 5//3 22//3 9//3
f 145//9 20//9 154//9
f 149//1 4//1 143//1
f 9//8 30//8 26//8
f 2//1 29//1 27//1
f 9//6 45//6 37//6
f 1//1 29//1 17//1
f 2//4 131//4 126//4
f 10//7 30//7 22//7
f 30//8 36//8 26//8
f 27//1 34//1 32//1
f 26//6 47//6 45//6
f 29//1 33//1 34//1
f 30//7 31//7 35//7
f 46//4 31//4 25//4
f 45//6 76//6 75//6
f 38//4 25//4 10//4
f 37//6 75//6 77//6
f 39//5 74//5 79//5
f 41//3 73//3 81//3
f 47//6 81//6 76//6
f 48//4 16//4 31//4
f 73//3 42//3 82//3
f 150//4 79//4 152//4
f 44//5 80//5 74//5
f 151//6 12//6 147//6
f 49//4 134//4 133//4
f 84//5 52//5 86//5
f 27//3 133//3 131//3
f 46//1 52//1 48//1
f 104//6 61//6 100//6
f 71//6 62//6 61//6
f 103//4 87//4 106//4
f 69//4 88//4 87//4
f 102//1 53//1 96//1
f 67//1 54//1 53//1
f 57//9 95//9 98//9
f 58//9 66//9 57//9
f 101//4 69//4 103//4
f 63//4 70//4 69//4
f 100//6 57//6 98//6
f 61//6 58//6 57//6
f 96//6 135//6 140//6
f 53//6 136//6 135//6
f 99//4 63//4 101//4
f 59//4 64//4 63//4
f 66//2 99//2 95//2
f 65//2 59//2 66//2
f 97//1 67//1 102//1
f 55//1 68//1 67//1
f 89//6 72//6 71//6
f 105//6 71//6 104//6
f 87//5 137//5 123//5
f 106//4 123//4 139//4
f 83//3 51//3 46//3
f 84//5 134//5 132//5
f 85//4 52//4 51//4
f 74//5 128//5 120//5
f 152//4 127//4 155//4
f 119//3 82//3 130//3
f 76//6 129//6 122//6
f 81//3 119//3 129//3
f 127//5 74//5 120//5
f 77//6 121//6 125//6
f 75//6 122//6 121//6
f 78//4 46//4 38//4
f 84//4 42//4 48//4
f 153//6 40//6 151//6
f 93//4 138//4 137//4
f 88//1 93//1 87//1
f 55//10 92//10 56//10
f 56//3 138//3 124//3
f 152//1 174//1 117//1
f 167//6 104//6 166//6
f 159//1 102//1 164//1
f 157//2 99//2 161//2
f 161//4 101//4 163//4
f 158//6 140//6 169//6
f 162//6 98//6 160//6
f 163//4 103//4 165//4
f 98//9 157//9 160//9
f 158//1 102//1 96//1
f 165//4 106//4 168//4
f 166//6 100//6 162//6
f 90//6 115//6 72//6
f 88//4 141//4 124//4
f 72//6 111//6 62//6
f 70//4 117//4 88//4
f 54//1 113//1 107//1
f 109//9 65//9 58//9
f 64//4 114//4 70//4
f 62//6 109//6 58//6
f 54//6 142//6 136//6
f 60//4 112//4 64//4
f 116//2 60//2 65//2
f 68//1 108//1 113//1
f 136//6 118//6 90//6
f 124//4 108//4 56//4
f 169//6 105//6 167//6
f 170//4 97//4 159//4
f 124//3 94//3 88//3
f 137//4 92//4 91//4
f 121//6 33//6 28//6
f 125//6 28//6 1//6
f 127//5 18//5 3//5
f 129//3 23//3 13//3
f 122//6 13//6 33//6
f 23//3 130//3 14//3
f 155//4 3//4 144//4
f 18//5 128//5 4//5
f 32//5 134//5 50//5
f 139//4 55//4 97//4
f 123//5 91//5 55//5
f 135//6 90//6 89//6
f 140//6 89//6 105//6
f 131//3 85//3 83//3
f 133//4 86//4 85//4
f 126//4 83//4 78//4
f 132//4 82//4 84//4
f 156//6 80//6 153//6
f 142//6 153//6 118//6
f 141//4 144//4 108//4
f 118//6 151//6 115//6
f 170//5 171//5 176//5
f 115//6 147//6 111//6
f 117//4 150//4 152//4
f 107//1 149//1 143//1
f 145//9 116//9 109//9
f 112//4 150//4 114//4
f 111//6 145//6 109//6
f 107//6 156//6 142//6
f 110//4 148//4 112//4
f 154//2 110//2 116//2
f 108//1 149//1 113//1
f 126//4 159//4 2//4
f 125//6 167//6 77//6
f 37//6 162//6 9//6
f 38//4 168//4 78//4
f 17//1 158//1 1//1
f 160//9 19//9 5//9
f 10//4 165//4 38//4
f 9//6 160//6 5//6
f 1//6 169//6 125//6
f 6//4 163//4 10//4
f 157//2 6//2 19//2
f 2//1 164//1 17//1
f 77//6 166//6 37//6
f 78//4 170//4 126//4
f 171//4 173//4 176//4
f 174//4 178//4 175//4
f 117//5 175//5 141//5
f 139//3 172//3 106//3
f 106//1 171//1 168//1
f 141//10 178//10 155//10
f 170//10 173//10 139//10
f 152//3 178//3 177//3
f 144//1 3//1 18//1
f 154//2 20//2 7//2
f 22//3 19//3 6//3
f 146//4 7//4 11//4
f 21//5 20//5 8//5
f 143//6 4//6 128//6
f 145//6 147//6 12//6
f 21//5 12//5 40//5
f 148//4 11//4 39//4
f 35//7 31//7 16//7
f 43//3 24//3 16//3
f 32//4 14//4 130//4
f 33//1 13//1 23//1
f 36//6 15//6 41//6
f 34//1 23//1 14//1
f 15//3 24//3 43//3
f 35//8 24//8 15//8
f 11//5 21//5 44//5
f 7//5 20//5 21//5
f 5//3 19//3 22//3
f 145//9 8//9 20//9
f 149//1 18//1 4//1
f 9//8 22//8 30//8
f 2//1 17//1 29//1
f 9//6 26//6 45//6
f 1//1 28//1 29//1
f 2//4 27//4 131//4
f 10//7 25//7 30//7
f 30//8 35//8 36//8
f 27//1 29//1 34//1
f 26//6 36//6 47//6
f 29//1 28//1 33//1
f 30//7 25//7 31//7
f 46//4 48//4 31//4
f 45//6 47//6 76//6
f 38//4 46//4 25//4
f 37//6 45//6 75//6
f 39//5 44//5 74//5
f 41//3 43//3 73//3
f 47//6 41//6 81//6
f 48//4 42//4 16//4
f 73//3 43//3 42//3
f 150//4 39//4 79//4
f 44//5 40//5 80//5
f 151//6 40//6 12//6
f 49//4 50//4 134//4
f 84//5 48//5 52//5
f 27//3 49//3 133//3
f 46//1 51//1 52//1
f 104//6 71//6 61//6
f 71//6 72//6 62//6
f 103//4 69//4 87//4
f 69//4 70//4 88//4
f 102//1 67//1 53//1
f 67//1 68//1 54//1
f 57//9 66//9 95//9
f 58//9 65//9 66//9
f 101//4 63//4 69//4
f 63//4 64//4 70//4
f 100//6 61//6 57//6
f 61//6 62//6 58//6
f 96//6 53//6 135//6
f 53//6 54//6 136//6
f 99//4 59//4 63//4
f 59//4 60//4 64//4
f 66//2 59//2 99//2
f 65//2 60//2 59//2
f 97//1 55//1 67//1
f 55//1 56//1 68//1
f 89//6 90//6 72//6
f 105//6 89//6 71//6
f 87//5 93//5 137//5
f 106//4 87//4 123//4
f 83//3 85//3 51//3
f 84//5 86//5 134//5
f 85//4 86//4 52//4
f 74//5 80//5 128//5
f 152//4 79//4 127//4
f 119//3 73//3 82//3
f 76//6 81//6 129//6
f 81//3 73//3 119//3
f 127//5 79//5 74//5
f 77//6 75//6 121//6
f 75//6 76//6 122//6
f 78//4 83//4 46//4
f 84//4 82//4 42//4
f 153//6 80//6 40//6
f 93//4 94//4 138//4
f 88//1 94//1 93//1
f 55//10 91//10 92//10
f 56//3 92//3 138//3
f 152//1 177//1 174//1
f 167//6 105//6 104//6
f 159//1 97//1 102//1
f 157//2 95//2 99//2
f 161//4 99//4 101//4
f 158//6 96//6 140//6
f 162//6 100//6 98//6
f 163//4 101//4 103//4
f 98//9 95//9 157//9
f 158//1 164//1 102//1
f 165//4 103//4 106//4
f 166//6 104//6 100//6
f 90//6 118//6 115//6
f 88//4 117//4 141//4
f 72//6 115//6 111//6
f 70//4 114//4 117//4
f 54//1 68//1 113//1
f 109//9 116//9 65//9
f 64//4 112//4 114//4
f 62//6 111//6 109//6
f 54//6 107//6 142//6
f 60//4 110//4 112//4
f 116//2 110//2 60//2
f 68//1 56//1 108//1
f 136//6 142//6 118//6
f 124//4 141//4 108//4
f 169//6 140//6 105//6
f 170//4 139//4 97//4
f 124//3 138//3 94//3
f 137//4 138//4 92//4
f 121//6 122//6 33//6
f 125//6 121//6 28//6
f 127//5 120//5 18//5
f 129//3 119//3 23//3
f 122//6 129//6 13//6
f 23//3 119//3 130//3
f 155//4 127//4 3//4
f 18//5 120//5 128//5
f 32//5 132//5 134//5
f 139//4 123//4 55//4
f 123//5 137//5 91//5
f 135//6 136//6 90//6
f 140//6 135//6 89//6
f 131//3 133//3 85//3
f 133//4 134//4 86//4
f 126//4 131//4 83//4
f 132//4 130//4 82//4
f 156//6 128//6 80//6
f 142//6 156//6 153//6
f 141//4 155//4 144//4
f 118//6 153//6 151//6
f 170//5 168//5 171//5
f 115//6 151//6 147//6
f 117//4 114//4 150//4
f 107//1 113//1 149//1
f 145//9 154//9 116//9
f 112//4 148//4 150//4
f 111//6 147//6 145//6
f 107//6 143//6 156//6
f 110//4 146//4 148//4
f 154//2 146//2 110//2
f 108//1 144//1 149//1
f 126//4 170//4 159//4
f 125//6 169//6 167//6
f 37//6 166//6 162//6
f 38//4 165//4 168//4
f 17//1 164//1 158//1
f 160//9 157//9 19//9
f 10//4 163//4 165//4
f 9//6 162//6 160//6
f 1//6 158//6 169//6
f 6//4 161//4 163//4
f 157//2 161//2 6//2
f 2//1 159//1 164//1
f 77//6 167//6 166//6
f 78//4 168//4 170//4
f 171//4 172//4 173//4
f 174//4 177//4 178//4
f 117//5 174//5 175//5
f 139//3 173//3 172//3
f 106//1 172//1 171//1
f 141//10 175//10 178//10
f 170//10 176//10 173//10
f 152//3 155//3 178//3
